<svg width="197" height="84" viewBox="0 0 197 84" fill="none" xmlns="http://www.w3.org/2000/svg">
<path d="M41.5898 0.00943538V83.1699H83.1701V15.7263C83.1651 11.5569 81.5066 7.5598 78.5585 4.61163C75.6103 1.66347 71.6132 0.00499421 67.4438 0L41.5898 0.00943538Z" fill="url(#paint0_linear_202_334)"/>
<path d="M20.854 20.7993V51.9562V83.1131H62.3776V51.9562V20.7993H20.854Z" fill="#B22297"/>
<path d="M41.5897 83.1072H15.7263C11.5569 83.1022 7.5598 81.4437 4.61163 78.4956C1.66347 75.5474 0.00499421 71.5503 0 67.3809V41.5898H41.5897V83.1072Z" fill="#482193"/>
<path d="M41.6441 41.5332H20.854V83.1134H41.6441V41.5332Z" fill="url(#paint1_linear_202_334)"/>
<path d="M62.3756 20.7993H41.5854V68.8839H62.3756V20.7993Z" fill="url(#paint2_linear_202_334)"/>
<path d="M102.767 24.3722V18.5849H99.6216V16.5625H102.732V13.1814L105.456 12.6152V16.5625H111.611V18.5849H105.469V23.9759C105.469 25.5171 106.356 26.426 107.853 26.426C108.515 26.429 109.163 26.231 109.71 25.8581C110.258 25.4852 110.679 24.9551 110.919 24.3376L112.212 25.7215C111.394 27.4923 109.532 28.5522 107.353 28.5522C104.497 28.5522 102.767 26.9607 102.767 24.3722Z" fill="#A7A7A6"/>
<path d="M113.906 28.1188V11.342H116.611V18.9441H116.633C117.633 17.1985 119.517 16.1511 122.015 16.1511C125.261 16.1511 127.236 18.0131 127.236 21.1018L127.214 28.1157H124.487V21.561C124.487 19.5166 123.194 18.2647 121.027 18.2647C118.325 18.2647 116.624 19.8562 116.624 22.3756V28.1188H113.906Z" fill="#A7A7A6"/>
<path d="M128.934 22.2619C128.934 18.6763 131.934 16.1318 136.168 16.1318C140.323 16.1318 143.138 18.6292 143.16 22.1927C143.164 22.521 143.135 22.8488 143.072 23.1709H131.818C132.132 25.1681 134.293 26.508 136.973 26.508C139.131 26.508 141.194 25.6682 142.15 24.5548L143.578 25.8947C142.376 27.4673 139.697 28.5524 136.812 28.5524C132.227 28.5524 128.934 25.9639 128.934 22.2619ZM140.549 21.4222C140.345 19.3809 138.596 18.1763 136.278 18.1763C133.96 18.1763 132.189 19.5161 131.966 21.4222H140.549Z" fill="#A7A7A6"/>
<path d="M100.811 49.676V33.5786H113.798V36.0539H103.808V40.7529H112.458V42.9766H103.808V49.676H100.811Z" fill="white"/>
<path d="M114.949 34.554C114.949 33.579 115.65 32.9185 116.672 32.9185C117.695 32.9185 118.421 33.579 118.421 34.554C118.421 35.529 117.695 36.2147 116.672 36.2147C115.65 36.2147 114.949 35.5542 114.949 34.554ZM115.31 49.6764V38.1301H118.018V49.6858L115.31 49.6764Z" fill="white"/>
<path d="M133.075 42.659L133.053 49.6761H130.326V43.1151C130.326 41.0707 129.034 39.822 126.867 39.822C124.165 39.822 122.463 41.4104 122.463 43.9329V49.6761H119.758V38.1299H122.105L122.419 40.514H122.444C123.419 38.7652 125.351 37.721 127.848 37.721C131.1 37.7115 133.075 39.5735 133.075 42.659Z" fill="white"/>
<path d="M134.34 46.7483C134.34 44.7039 136.338 43.2507 140.514 42.8419L144.49 42.4802C145.056 42.433 145.396 42.1656 145.396 41.7064C145.396 40.549 143.874 39.7092 141.719 39.7092C139.335 39.7092 137.155 40.8226 136.372 42.2065L134.601 41.0711C135.51 39.1651 138.395 37.6899 141.707 37.6899C145.364 37.6899 148.066 39.3003 148.066 42.0681V47.1005C148.066 47.7296 148.406 48.0976 148.972 48.0976C149.212 48.0877 149.447 48.021 149.656 47.9029C149.866 47.7848 150.044 47.6187 150.177 47.4182L151.12 48.8933C150.507 49.6419 149.349 50.098 148.17 50.098C146.597 50.098 145.534 49.1544 145.421 47.8491L145.399 47.4402H145.377C144.399 49.0286 142.197 50.098 139.495 50.098C136.316 50.0822 134.34 48.8241 134.34 46.7483ZM145.327 44.6598V44.1063L140.879 44.5151C138.178 44.7888 137.042 45.4587 137.042 46.4463C137.042 47.4905 138.222 48.1007 140.219 48.1007C143.182 48.107 145.327 46.6225 145.327 44.6598V44.6598Z" fill="white"/>
<path d="M165.387 42.659L165.365 49.6761H162.642V43.1151C162.642 41.0707 161.346 39.822 159.182 39.822C156.48 39.822 154.778 41.4104 154.778 43.9329V49.6761H152.077V38.1299H154.439L154.753 40.514H154.775C155.75 38.7652 157.681 37.721 160.179 37.721C163.412 37.7115 165.387 39.5735 165.387 42.659Z" fill="white"/>
<path d="M166.595 43.9115C166.595 40.2095 169.501 37.6902 173.681 37.6902C176.996 37.6902 179.559 39.3226 180.242 41.7318L177.726 42.342C177.27 40.7694 175.747 39.8006 173.819 39.8006C171.187 39.8006 169.303 41.4582 169.303 43.9115C169.303 46.3648 171.253 48.0192 174.021 48.0192C176.405 48.0192 178.336 46.7013 178.811 44.7733L181.355 45.2702C180.695 48.1324 177.697 50.1076 173.929 50.1076C169.57 50.1076 166.595 47.6103 166.595 43.9115Z" fill="white"/>
<path d="M182.366 43.8171C182.366 40.2315 185.363 37.6902 189.6 37.6902C193.755 37.6902 196.57 40.1844 196.592 43.7511C196.597 44.0784 196.566 44.4054 196.5 44.7261H185.24C185.555 46.7234 187.716 48.0632 190.396 48.0632C192.553 48.0632 194.616 47.2234 195.569 46.1132L197.001 47.4499C195.796 49.0225 193.119 50.1076 190.235 50.1076C185.659 50.1076 182.366 47.5191 182.366 43.8171ZM193.821 42.9774C193.616 40.9361 191.871 39.7315 189.553 39.7315C187.235 39.7315 185.464 41.0713 185.24 42.9774H193.821Z" fill="white"/>
<path d="M100.042 66.8244L102.221 65.6669C102.904 67.9378 105.58 69.5041 108.691 69.5041C111.349 69.5041 113.05 68.3907 113.05 66.8936C113.05 65.689 111.959 64.9404 109.348 64.4875L106.203 63.9433C102.504 63.3143 100.891 62.0342 100.891 59.606C100.891 56.5394 103.721 54.5894 107.795 54.5894C111.132 54.5894 113.899 56.162 114.83 58.4706L112.789 59.6941C112.063 57.9925 110.109 56.8634 107.795 56.8634C105.48 56.8634 103.866 57.9045 103.866 59.3324C103.866 60.4678 104.81 61.1252 106.977 61.49L110.084 62.0121C114.173 62.6412 116.01 64.0786 116.01 66.5759C116.01 69.7212 113.038 71.775 108.587 71.775C104.423 71.7845 100.995 69.8218 100.042 66.8244Z" fill="white"/>
<path d="M118.909 67.4816V61.6943H115.764V59.6719H118.875V56.2908L121.599 55.7246V59.6719H127.77V61.6943H121.611V67.0664C121.611 68.6076 122.498 69.5165 123.995 69.5165C124.657 69.5197 125.305 69.3218 125.852 68.9488C126.399 68.5759 126.82 68.0456 127.059 67.4281L128.355 68.812C127.537 70.5828 125.675 71.6427 123.495 71.6427C120.636 71.6616 118.909 70.0701 118.909 67.4816Z" fill="white"/>
<path d="M129.323 68.3022C129.323 66.2578 131.32 64.8047 135.497 64.3958L139.472 64.0309C140.039 63.9869 140.378 63.7164 140.378 63.2604C140.378 62.1029 138.856 61.2631 136.698 61.2631C134.317 61.2631 132.138 62.3734 131.351 63.7605L129.581 62.625C130.49 60.7158 133.374 59.2407 136.686 59.2407C140.341 59.2407 143.045 60.8542 143.045 63.6221V68.6387C143.045 69.2678 143.385 69.6389 143.951 69.6389C144.191 69.6286 144.426 69.5617 144.635 69.4436C144.844 69.3255 145.023 69.1597 145.156 68.9596L146.1 70.4347C145.486 71.1832 144.329 71.6393 143.149 71.6393C141.577 71.6393 140.514 70.6957 140.4 69.3905L140.378 68.9816H140.353C139.378 70.5699 137.176 71.6393 134.475 71.6393C131.298 71.6393 129.323 70.3875 129.323 68.3022ZM140.309 66.2106V65.6665L135.862 66.0754C133.16 66.349 132.025 67.0189 132.025 68.0065C132.025 69.0508 133.204 69.6609 135.201 69.6609C138.148 69.6609 140.309 68.1858 140.309 66.2106V66.2106Z" fill="white"/>
<path d="M145.66 65.462C145.66 61.7632 148.566 59.2407 152.746 59.2407C156.062 59.2407 158.625 60.8763 159.307 63.2824L156.791 63.8957C156.335 62.3231 154.813 61.3543 152.885 61.3543C150.252 61.3543 148.368 63.0119 148.368 65.462C148.368 67.9122 150.318 69.5697 153.086 69.5697C155.47 69.5697 157.401 68.255 157.876 66.3238L160.421 66.8239C159.76 69.6861 156.763 71.6613 152.995 71.6613C148.636 71.6613 145.66 69.164 145.66 65.462Z" fill="white"/>
<path d="M161.488 71.228V54.4512H164.193V64.3744H164.215L170.093 59.6723H173.726L168.033 64.192L173.959 71.228H170.707L166.121 65.7112L164.193 67.2335V71.228H161.488Z" fill="white"/>
<defs>
<linearGradient id="paint0_linear_202_334" x1="61.8725" y1="76.9097" x2="61.8725" y2="-7.22232" gradientUnits="userSpaceOnUse">
<stop stop-color="#F95588"/>
<stop offset="1" stop-color="#FC70A9"/>
</linearGradient>
<linearGradient id="paint1_linear_202_334" x1="30.9601" y1="41.579" x2="30.9601" y2="77.1137" gradientUnits="userSpaceOnUse">
<stop stop-color="#8723C1"/>
<stop offset="1" stop-color="#482193"/>
</linearGradient>
<linearGradient id="paint2_linear_202_334" x1="51.5482" y1="22.765" x2="51.5482" y2="67.94" gradientUnits="userSpaceOnUse">
<stop offset="0.01" stop-color="#E838A9"/>
<stop offset="1" stop-color="#B22297"/>
</linearGradient>
</defs>
</svg>
